<svg width="35" height="35" viewBox="0 0 35 35" fill="none" xmlns="http://www.w3.org/2000/svg">
<path d="M14.2485 20.3693C15.2271 20.3693 16.0204 19.5263 16.0204 18.4864C16.0204 17.4465 15.2271 16.6035 14.2485 16.6035C13.2699 16.6035 12.4766 17.4465 12.4766 18.4864C12.4766 19.5263 13.2699 20.3693 14.2485 20.3693Z" fill="#C7C7C7"/>
<path d="M20.7519 20.3693C21.7305 20.3693 22.5238 19.5263 22.5238 18.4864C22.5238 17.4465 21.7305 16.6035 20.7519 16.6035C19.7733 16.6035 18.98 17.4465 18.98 18.4864C18.98 19.5263 19.7733 20.3693 20.7519 20.3693Z" fill="#C7C7C7"/>
<path d="M26.2219 0H8.75C3.94452 0 0 3.94452 0 8.77808V26.25C0 31.0555 3.94452 35 8.75 35H26.2219C31.0555 35 35 31.0555 35 26.2219V8.77808C35 3.94452 31.0555 0 26.2219 0ZM22.4404 24.9966L21.3151 23.3705C22.7664 22.9781 23.8034 22.076 24.426 21.374C22.6877 22.6027 20.2288 23.3705 17.5 23.3705C14.7712 23.3705 12.3123 22.6027 10.574 21.374C11.1973 22.076 12.2336 22.9774 13.6849 23.3705L12.5596 24.9966C12.5596 24.9966 9.4952 25.3719 7.05616 22.4329C7.05616 22.4329 7.20205 15.137 9.7911 11.8021C9.7911 11.8021 11.2877 10.2178 14.6856 9.98836V10.4884C14.6856 10.4884 12.8219 10.3801 10.5151 12.6507C12.2562 11.3979 14.7404 10.613 17.4993 10.613C20.2582 10.613 22.7425 11.3979 24.4836 12.6507C22.1767 10.3801 20.313 10.4884 20.313 10.4884V9.98836C23.711 10.2178 25.2075 11.8021 25.2075 11.8021C27.7966 15.137 27.9425 22.4329 27.9425 22.4329C25.5041 25.3719 22.4404 24.9966 22.4404 24.9966Z" fill="#C7C7C7"/>
</svg>
