<svg width="37" height="35" viewBox="0 0 37 35" fill="none" xmlns="http://www.w3.org/2000/svg">
<path d="M35.9378 10.2901C35.8534 8.43044 35.5438 7.15192 35.1002 6.04406C34.6426 4.8681 33.9387 3.81526 33.0163 2.94004C32.1152 2.05119 31.024 1.36051 29.8273 0.923035C28.68 0.492232 27.3705 0.191498 25.4558 0.109503C23.5267 0.0205653 22.9143 0 18.0217 0C13.1291 0 12.5167 0.0205653 10.5948 0.102559C8.68005 0.184554 7.36367 0.485555 6.22329 0.916091C5.01224 1.36051 3.92823 2.04424 3.02709 2.94004C2.11192 3.81526 1.40107 4.87504 0.950364 6.03738C0.506806 7.15192 0.197168 8.42349 0.112746 10.2832C0.0211742 12.1568 0 12.7516 0 17.5035C0 22.2554 0.0211742 22.8502 0.105596 24.7168C0.190018 26.5765 0.499931 27.855 0.943489 28.9629C1.40107 30.1388 2.11192 31.1917 3.02709 32.0669C3.92823 32.9558 5.01938 33.6464 6.21614 34.0839C7.36367 34.5147 8.6729 34.8154 10.5879 34.8974C12.5096 34.9797 13.1222 35 18.0148 35C22.9075 35 23.5199 34.9797 25.4418 34.8974C27.3565 34.8154 28.6729 34.5147 29.8133 34.0839C32.2351 33.1745 34.1499 31.3148 35.0862 28.9629C35.5295 27.8484 35.8394 26.5765 35.9238 24.7168C36.0082 22.8502 36.0294 22.2554 36.0294 17.5035C36.0294 12.7516 36.0223 12.1568 35.9378 10.2901ZM32.6927 24.5801C32.6151 26.2894 32.3195 27.2124 32.0731 27.8278C31.4676 29.3526 30.2216 30.5627 28.6517 31.1508C28.0181 31.3901 27.0609 31.6772 25.3078 31.7523C23.4071 31.8345 22.8371 31.8548 18.0289 31.8548C13.2207 31.8548 12.6435 31.8345 10.7496 31.7523C8.98968 31.6772 8.03932 31.3901 7.40574 31.1508C6.6245 30.8704 5.91338 30.426 5.33617 29.8448C4.7378 29.2772 4.28021 28.5935 3.99147 27.8347C3.74508 27.2194 3.44947 26.2894 3.3722 24.587C3.2875 22.7409 3.2666 22.187 3.2666 17.5171C3.2666 12.8472 3.2875 12.2866 3.3722 10.4474C3.44947 8.73811 3.74508 7.81508 3.99147 7.19972C4.28021 6.44068 4.7378 5.75027 5.34332 5.1894C5.9274 4.60823 6.63137 4.16381 7.41289 3.88364C8.04647 3.64433 9.00398 3.35722 10.7568 3.2819C12.6575 3.19991 13.2278 3.17934 18.0357 3.17934C22.8511 3.17934 23.4211 3.19991 25.315 3.2819C27.0749 3.35722 28.0253 3.64433 28.6589 3.88364C29.4401 4.16381 30.1512 4.60823 30.7284 5.1894C31.3268 5.75695 31.7844 6.44068 32.0731 7.19972C32.3195 7.81508 32.6151 8.74479 32.6927 10.4474C32.7771 12.2935 32.7983 12.8472 32.7983 17.5171C32.7983 22.187 32.7771 22.734 32.6927 24.5801Z" fill="#C7C7C7"/>
<path d="M18.0219 8.51245C12.9112 8.51245 8.76465 12.5395 8.76465 17.5035C8.76465 22.4675 12.9112 26.4945 18.0219 26.4945C23.1329 26.4945 27.2792 22.4675 27.2792 17.5035C27.2792 12.5395 23.1329 8.51245 18.0219 8.51245ZM18.0219 23.3358C14.7064 23.3358 12.017 20.724 12.017 17.5035C12.017 14.283 14.7064 11.6712 18.0219 11.6712C21.3377 11.6712 24.0268 14.283 24.0268 17.5035C24.0268 20.724 21.3377 23.3358 18.0219 23.3358Z" fill="#C7C7C7"/>
<path d="M29.8065 8.15686C29.8065 9.31599 28.8388 10.2559 27.645 10.2559C26.4516 10.2559 25.4839 9.31599 25.4839 8.15686C25.4839 6.99746 26.4516 6.05786 27.645 6.05786C28.8388 6.05786 29.8065 6.99746 29.8065 8.15686Z" fill="#C7C7C7"/>
</svg>
