<svg width="35" height="35" viewBox="0 0 35 35" fill="none" xmlns="http://www.w3.org/2000/svg">
<path d="M26.2219 0H8.75C3.94452 0 0 3.94452 0 8.77808V26.25C0 31.0555 3.94452 35 8.75 35H26.2219C31.0555 35 35 31.0555 35 26.2219V8.77808C35 3.94452 31.0555 0 26.2219 0ZM26.463 11.3555L26.4623 11.3562L23.7418 24.1055C23.537 25.0055 23.0014 25.2288 22.2411 24.8048L18.0959 21.7692L16.0952 23.6808C15.8733 23.9007 15.689 24.0842 15.2623 24.0842L15.5603 19.8897L23.2425 12.9918C23.5767 12.6959 23.1705 12.5322 22.7233 12.8281L13.226 18.7705L9.13699 17.4986C8.24726 17.2226 8.23082 16.6144 9.3226 16.1911L25.3158 10.0678C26.0562 9.79247 26.7041 10.2315 26.463 11.3555Z" fill="#C7C7C7"/>
</svg>
