<svg width="100" height="100" viewBox="0 0 100 100" fill="none" xmlns="http://www.w3.org/2000/svg">
<path d="M50 0C22.3857 0 0 22.3857 0 50C0 77.6137 22.3857 100 50 100C77.6143 100 100 77.6137 100 50C100 22.3857 77.6143 0 50 0ZM65.236 53.3863C64.9923 53.63 64.725 53.836 64.4467 54.015L45.6817 72.78C44.7703 73.692 43.5757 74.1477 42.381 74.1477C41.1863 74.1477 39.9923 73.692 39.0803 72.78C37.257 70.9567 37.257 68 39.0803 66.1773L55.25 50.0053L39.1617 33.917C37.3383 32.0927 37.3383 29.137 39.1617 27.3143C40.985 25.491 43.941 25.492 45.7643 27.3133L64.4463 45.9943C64.7247 46.1733 64.992 46.379 65.2347 46.623C66.1667 47.555 66.6163 48.7827 66.5953 50.005C66.6173 51.2267 66.1687 52.4537 65.236 53.3863Z" fill="#E2621B"/>
</svg>
