<svg width="17" height="14" viewBox="0 0 17 14" fill="none" xmlns="http://www.w3.org/2000/svg">
<path fill-rule="evenodd" clip-rule="evenodd" d="M8.43752 0.00612224C9.66708 -0.0556903 10.7088 0.35056 11.5625 1.22487C12.7813 2.31862 14 3.41237 15.2188 4.50612C16.0326 5.54556 16.2201 6.69143 15.7813 7.94362C15.5763 8.44006 15.2743 8.86718 14.875 9.22487C13.5417 10.3916 12.2083 11.5582 10.875 12.7249C9.52083 13.5999 8.1667 13.5999 6.81252 12.7249C6.22933 12.2872 5.81264 11.7247 5.56252 11.0374C4.6667 11.0166 3.77083 10.9957 2.87502 10.9749C1.3442 10.7149 0.396266 9.8295 0.0312656 8.31862C-0.0104219 7.23531 -0.0104219 6.15193 0.0312656 5.06862C0.388953 3.58593 1.31602 2.7005 2.81252 2.41237C3.7292 2.39156 4.64583 2.37068 5.56252 2.34987C6.08114 1.019 7.03945 0.237747 8.43752 0.00612224Z" fill="white"/>
</svg>