<svg width="52" height="60" viewBox="0 0 52 60" fill="none" xmlns="http://www.w3.org/2000/svg">
<path d="M50.0316 48.175C48.2721 47.4544 47.5195 46.4981 47.5923 45.0713C47.6672 43.4059 46.7224 42.186 46.2736 41.704C46.5447 40.6685 47.3369 37.0861 46.2744 33.9746C45.1326 30.6441 41.6467 25.5574 38.0498 20.5573C36.5774 18.5039 36.5077 16.2719 36.4273 13.6874C36.3502 11.2222 36.2632 8.42799 34.8885 5.32174C33.3938 1.93949 30.3946 0 26.6594 0C24.4374 0 22.1566 0.694431 20.4015 1.90506C16.8073 4.38554 17.2824 9.79364 17.5968 13.3722C17.6399 13.8623 17.6804 14.3251 17.704 14.7204C17.9133 18.2252 17.7229 20.0724 17.4738 20.6338C17.3127 21.0007 16.5195 22.0449 15.6801 23.1505C14.812 24.2939 13.8278 25.5899 13.021 26.7976C12.0585 28.2507 11.2814 30.4719 10.5299 32.62C9.98009 34.1918 9.46074 35.6764 8.95516 36.5637C7.99692 38.2704 8.23535 39.8619 8.43444 40.5975C8.07168 40.8494 7.54761 41.3456 7.10518 42.2808C6.57049 43.4218 5.48556 44.035 3.22955 44.4688C2.19282 44.6808 1.47793 45.1168 1.10416 45.7644C0.560219 46.7069 0.856484 47.8911 1.12678 48.7005C1.52613 49.8902 1.27727 50.6433 0.824811 52.0105C0.720548 52.3261 0.602318 52.6833 0.482514 53.0773C0.293857 53.6992 0.361923 54.2646 0.684351 54.7577C1.53636 56.0602 4.02254 56.5196 6.5819 56.8218C8.11004 57.0031 9.78257 57.6143 11.4002 58.2057C12.9852 58.7849 14.6241 59.3839 16.1139 59.5656C16.3403 59.5942 16.5646 59.6085 16.7808 59.6085C19.0301 59.6085 20.0464 58.116 20.3686 57.5028C21.1766 57.338 23.9631 56.8099 26.8351 56.7391C29.7025 56.6573 32.4769 57.2235 33.2628 57.3995C33.5099 57.8724 34.1612 58.9527 35.1995 59.5092C35.7702 59.8212 36.5644 60 37.3778 60C37.378 60 37.3778 60 37.378 60C38.2468 60 39.8994 59.7946 41.2074 58.4186C42.5121 57.036 45.7718 55.271 48.1521 53.9823C48.6833 53.6946 49.1802 53.4255 49.616 53.1826C50.9531 52.4413 51.6827 51.3822 51.6176 50.2768C51.5633 49.3587 50.9556 48.5533 50.0316 48.175ZM20.4308 47.9088C20.2644 46.7364 18.7561 45.5735 17.0094 44.2272C15.5812 43.1261 13.9623 41.8783 13.5164 40.8215C12.5947 38.6414 13.3212 34.8081 14.5879 32.8342C15.2139 31.8459 15.7252 30.347 16.2197 28.8976C16.7536 27.3324 17.3058 25.7142 17.9234 25.0058C18.9013 23.8998 19.805 21.7479 19.9651 20.0519C20.8809 20.9262 22.3014 22.0355 23.6138 22.0355C23.8158 22.0355 24.0119 22.0091 24.1994 21.9562C25.0972 21.6969 26.4178 20.9338 27.695 20.1961C28.796 19.5599 30.1538 18.7754 30.6647 18.704C31.5407 19.9618 36.6309 31.2264 37.151 34.8439C37.5626 37.7062 37.1278 40.0724 36.9092 40.9992C36.7334 40.9752 36.5237 40.9557 36.3033 40.9557C34.8856 40.9557 34.5102 41.7296 34.4124 42.1917C34.161 43.3923 34.1345 47.2313 34.1317 48.094C33.6191 48.7453 31.0265 51.8126 27.3043 52.364C25.7881 52.5844 24.3723 52.6961 23.0964 52.6961C22.0057 52.6961 21.3097 52.6119 21.0208 52.568L19.1503 50.4279C19.8878 50.0637 20.6251 49.2953 20.4308 47.9088ZM22.8042 12.6196C22.7458 12.6447 22.6884 12.6717 22.6319 12.7004C22.6262 12.5737 22.613 12.4453 22.5928 12.3164C22.3886 11.141 21.6091 10.2878 20.7398 10.2878C20.6755 10.2878 20.6108 10.2927 20.5398 10.3035C20.0226 10.3897 19.6169 10.7782 19.3946 11.3291C19.5896 10.1204 20.2744 9.2255 21.0868 9.2255C22.041 9.2255 22.8469 10.5113 22.8469 12.0331C22.8469 12.2249 22.833 12.4158 22.8042 12.6196ZM30.2179 13.5259C30.3053 13.2477 30.3525 12.9467 30.3525 12.6343C30.3525 11.2545 29.4771 10.1735 28.3595 10.1735C27.2673 10.1735 26.3787 11.2773 26.3787 12.6343C26.3787 12.7268 26.3832 12.8194 26.3919 12.9119C26.334 12.8897 26.2776 12.868 26.2225 12.8472C26.0968 12.4665 26.0332 12.0693 26.0332 11.6639C26.0332 10.014 27.0877 8.67153 28.3841 8.67153C29.6803 8.67153 30.7349 10.014 30.7349 11.6639C30.7349 12.3502 30.5455 13.0053 30.2179 13.5259ZM29.262 16.7372C29.2434 16.8206 29.2036 16.8576 28.7641 17.0861C28.5422 17.2016 28.266 17.3454 27.9204 17.5559L27.6895 17.6958C26.7613 18.2584 24.5881 19.5763 23.9981 19.6536C23.5974 19.7075 23.3496 19.5521 22.7922 19.1734C22.6665 19.0878 22.5328 18.9969 22.3901 18.9054C21.3855 18.2462 20.7392 17.5201 20.6663 17.2362C20.9938 16.9831 21.8057 16.3494 22.2213 15.9743C23.0651 15.1897 23.9141 14.6625 24.3343 14.6625C24.3566 14.6625 24.3766 14.6641 24.3975 14.668C24.8913 14.7552 26.1092 15.2413 26.9988 15.5962C27.4099 15.7602 27.765 15.9019 28.0148 15.9916C28.8019 16.2619 29.2123 16.6077 29.262 16.7372ZM36.3336 53.4004C36.7776 51.3975 37.2891 48.6729 37.2063 47.0667C37.1872 46.7018 37.155 46.3046 37.1237 45.9206C37.0653 45.2025 36.9785 44.1353 37.068 43.8188C37.0857 43.8105 37.1054 43.8034 37.1272 43.7973C37.131 44.7156 37.3304 46.5473 38.7952 47.1861C39.2318 47.3765 39.7306 47.4729 40.2779 47.4729C41.7453 47.4729 43.3734 46.7531 44.0402 46.0862C44.4329 45.6936 44.7632 45.2132 44.9945 44.8327C45.0451 44.9808 45.0762 45.1744 45.0599 45.4238C44.9727 46.7783 45.631 48.5751 46.8837 49.2373L47.066 49.3331C47.5122 49.5672 48.6973 50.1894 48.7163 50.4845C48.7161 50.4847 48.7063 50.5194 48.6402 50.5807C48.3434 50.852 47.2986 51.3855 46.2882 51.9015C44.4959 52.8167 42.4643 53.854 41.5519 54.8136C40.2673 56.1655 38.8143 57.0736 37.9369 57.0736C37.8313 57.0736 37.7351 57.0602 37.6495 57.033C36.6966 56.736 35.9123 55.3611 36.3336 53.4004ZM3.85257 48.2909C3.75539 47.8361 3.67867 47.477 3.76109 47.1292C3.8209 46.8715 5.0931 46.5953 5.63645 46.4775C6.40032 46.3116 7.19036 46.1403 7.70695 45.8267C8.40552 45.4036 8.78382 44.6232 9.11746 43.9347C9.35903 43.4367 9.60848 42.9219 9.90533 42.7529C9.92205 42.7431 9.94763 42.7317 9.99641 42.7317C10.5525 42.7317 11.7195 43.9008 12.3919 44.9472C12.5625 45.211 12.8784 45.7396 13.2439 46.3516C14.3371 48.1807 15.834 50.686 16.6157 51.5256C17.3202 52.2804 18.4606 53.7316 18.1801 54.9763C17.9747 55.942 16.8813 56.7273 16.6234 56.901C16.5298 56.9223 16.4139 56.9331 16.2776 56.9331C14.7813 56.9331 11.8194 55.6882 10.2282 55.0194L9.99267 54.9204C9.10408 54.5478 7.65345 54.3131 6.25062 54.0861C5.13441 53.9053 3.60588 53.6581 3.3525 53.4346C3.14712 53.2042 3.38535 52.4553 3.59545 51.7945C3.74673 51.3196 3.90293 50.8286 3.9885 50.3146C4.10988 49.4946 3.96706 48.8271 3.85257 48.2909Z" fill="white"/>
</svg>
