<?xml version="1.0" encoding="utf-8"?>
<!-- Generator: Adobe Illustrator 25.0.1, SVG Export Plug-In . SVG Version: 6.00 Build 0)  -->
<svg version="1.1" id="Layer_1" xmlns="http://www.w3.org/2000/svg" xmlns:xlink="http://www.w3.org/1999/xlink" x="0px" y="0px"
	 viewBox="0 0 256 256" style="enable-background:new 0 0 256 256;" xml:space="preserve">
<style type="text/css">
	.st0{fill:#FFFFFF;}
	.st1{fill:#FFFFFF;}
</style>
<g>
	<path class="st0" d="M106.02,121.62c0,0-17.56-74.2,35.79-117.32c0,0,64.9-16,107.58,24.45l-33.12,46.68
		C216.27,75.43,125.8,22.45,106.02,121.62z"/>
	<path class="st1" d="M124.03,8.75c0,0-45.34,14.34-67.01,56.68c0,0-22.34,3.33-40.68-11.67c0,0-12,41.68,4,71.35L0,114.1
		c0,0,9.34,68.01,88.35,112.36H62.01c42.6,32.24,97.76,37.42,139.41,13.36c39.67-22.91,51.88-63.56,54.57-73.53
		c-2.49,2.13-49.94,41.42-101.56,23.02c-24.59-8.77-38.92-26.65-44.09-33.86c-20.75-28.98-18.13-60.31-17-73.68
		C96.49,44.4,115.55,18.83,124.03,8.75z"/>
</g>
</svg>
