<svg width="60" height="74" viewBox="0 0 60 74" fill="none" xmlns="http://www.w3.org/2000/svg">
<path d="M50.112 39.1516C50.0159 29.8135 57.7255 25.3447 58.0672 25.1205C53.7372 18.7937 46.9993 17.9234 44.5914 17.8273C38.8625 17.24 33.4007 21.2016 30.4855 21.2016C27.5811 21.2016 23.0855 17.9074 18.3284 17.9928C12.071 18.0889 6.31014 21.6341 3.08533 27.2294C-3.41234 38.5056 1.41953 55.2062 7.75169 64.3628C10.8484 68.8369 14.543 73.861 19.3856 73.6848C24.0519 73.4979 25.8138 70.6629 31.4572 70.6629C37.1006 70.6629 38.6864 73.6848 43.6197 73.5941C48.6438 73.498 51.8205 69.0291 54.8905 64.5443C58.4463 59.3494 59.9092 54.3146 60 54.0637C59.8825 53.9996 50.2134 50.2996 50.112 39.1516Z" fill="white"/>
<path d="M40.8334 11.7673C43.4015 8.65463 45.142 4.31929 44.6668 -3.05176e-05C40.9562 0.149464 36.4767 2.46129 33.8125 5.57932C31.4259 8.33962 29.349 12.7444 29.9043 16.9783C34.0367 17.304 38.2653 14.8747 40.8334 11.7673Z" fill="white"/>
</svg>
