<svg width="100" height="100" viewBox="0 0 100 100" fill="none" xmlns="http://www.w3.org/2000/svg">
<path d="M17.0127 40.9744L49.9987 51.9056L82.9847 40.9744L49.9987 30.0435L17.0127 40.9744Z" fill="#D4DFD6"/>
<path d="M91.0428 44.4785L54.4731 56.5972L63.4301 70.821L100 58.7021L91.0428 44.4785Z" fill="#D4DFD6"/>
<path d="M47.0711 65.144L39.0854 77.8252L10.6323 68.3962V87.9246L47.0711 99.9999V65.144Z" fill="#D4DFD6"/>
<path d="M60.9154 77.8252L52.9297 65.144V99.9999L89.3685 87.9246V68.3962L60.9154 77.8252Z" fill="#D4DFD6"/>
<path d="M36.5699 70.821L45.5268 56.5972L8.95711 44.4785L0 58.7021L36.5699 70.821Z" fill="#D4DFD6"/>
<path d="M47.0684 0H52.9295V19.5654H47.0684V0Z" fill="#D4DFD6"/>
<path d="M19.5063 8.95361L24.5821 6.02389L34.3675 22.9676L29.2918 25.8973L19.5063 8.95361Z" fill="#D4DFD6"/>
<path d="M65.6313 22.9688L75.4168 6.02508L80.4925 8.9548L70.7071 25.8985L65.6313 22.9688Z" fill="#D4DFD6"/>
</svg>
