<svg width="100" height="100" viewBox="0 0 100 100" fill="none" xmlns="http://www.w3.org/2000/svg">
<path d="M100 99.9352C100 86.6935 93.6492 74.3348 82.5055 65.7506C82.0783 61.2655 80.363 58.0011 77.2929 55.8038C75.4419 54.4792 73.2489 53.672 70.7315 53.2623C74.0885 49.3227 76.0866 44.4016 76.0866 39.0702C76.0866 36.7849 75.7152 34.5338 75.0003 32.3806V0L60.9624 8.7634L50 0.13087L39.0376 8.7634L25.0003 0V32.3769C24.2848 34.5289 23.9127 36.7812 23.9127 39.0702C23.9127 44.4016 25.9115 49.3227 29.2692 53.2623C26.7511 53.672 24.5581 54.4792 22.7071 55.8038C19.637 58.0011 17.9224 61.2655 17.4944 65.7506C6.35077 74.3348 0 86.6935 0 99.9352H8.69577C8.69577 90.688 12.4433 81.9632 19.1593 75.1965C20.8712 79.1128 23.7955 83.097 27.7965 86.8885C33.6205 92.4083 41.3553 97.1221 48.4878 99.4961L50 100L51.5136 99.4955C58.9316 97.0236 66.6017 92.1087 72.5565 86.0104C76.12 82.3619 78.8003 78.5709 80.4938 74.854C87.4266 81.6672 91.3042 90.5309 91.3042 99.9352H100ZM53.2854 54.393C52.221 54.5771 51.1231 54.6762 50 54.6762C48.8762 54.6762 47.779 54.5771 46.7139 54.393C46.583 54.3692 46.4535 54.3459 46.3241 54.3221C38.4945 52.8036 32.6085 46.5433 32.6085 39.0702C32.6085 37.0423 33.0487 35.0603 33.8794 33.2178H66.1192C66.9506 35.0616 67.3915 37.0454 67.3915 39.0702C67.3915 46.5433 61.5055 52.8036 53.6773 54.3221C53.5465 54.3459 53.4163 54.3692 53.2854 54.393ZM33.6961 14.9339L39.6584 18.6563L50 10.5118L60.3416 18.6563L66.3046 14.9339V25.4145H33.6961V14.9339ZM66.0177 80.8679C61.4694 85.5254 55.5807 89.468 49.9939 91.6366C38.6662 87.3001 26.3299 76.4263 26.088 67.6586C26.1514 64.7648 26.8369 62.8286 28.129 61.904C30.902 59.9195 37.9895 60.7769 44.3164 61.9187C44.6292 61.981 44.9447 62.0391 45.263 62.0917C45.3925 62.1162 45.5226 62.1406 45.6521 62.1651V77.3057H54.3479V62.1651C54.478 62.1406 54.6075 62.1156 54.7384 62.0911C55.0553 62.0391 55.3701 61.981 55.6829 61.9187C62.0105 60.7781 69.0987 59.9195 71.8723 61.904C73.0397 62.74 73.711 64.4052 73.8752 66.855C73.5249 71.0184 70.7056 76.0673 66.0177 80.8679V80.8679Z" fill="#B4C7D0"/>
</svg>
