<svg width="96" height="100" viewBox="0 0 96 100" fill="none" xmlns="http://www.w3.org/2000/svg">
<path d="M20.4704 0.0098422C22.3904 0.600361 23.3504 1.94871 23.8604 3.82853C25.1104 8.40505 26.4904 12.9422 27.8004 17.499C27.9404 18.001 28.2004 18.3454 28.6304 18.6407C32.4404 21.2685 36.2404 23.916 40.0304 26.5733C40.4504 26.8686 40.8804 26.9965 41.4004 26.9965C44.6404 26.9769 47.8804 27.0457 51.1204 26.967C55.1504 26.8686 59.0704 27.6756 63.0304 28.2268C64.5704 28.4433 66.1104 28.6205 67.6304 28.9354C68.4804 29.1126 68.9204 28.837 69.4204 28.1973C71.9604 24.9494 74.5404 21.7311 77.1204 18.5226C78.2404 17.125 79.8604 16.6231 81.4404 17.1054C84.1704 17.9222 85.1604 21.0421 83.3704 23.3255C80.7304 26.7013 78.0304 30.0377 75.3604 33.384C74.7904 34.1024 74.2304 34.8209 73.6404 35.5295C72.6304 36.7204 71.3604 37.2027 69.7704 36.9861C65.1904 36.3661 60.6004 35.7953 56.0204 35.1752C55.2404 35.067 54.9704 35.1851 54.9704 36.0708C55.0104 43.3933 54.9804 50.7157 55.0004 58.0381C55.0104 59.9475 55.7704 61.719 56.2504 63.5299C58.8804 73.618 61.5704 83.6961 64.2404 93.7743C64.8604 96.1069 64.0904 98.154 62.2004 99.2957C60.4104 100.378 58.1804 100.201 56.5804 98.8429C55.7404 98.1343 55.2804 97.2289 55.0004 96.1955C51.9504 84.6311 48.9004 73.0767 45.8404 61.5222C45.7304 61.1088 45.8304 60.4494 45.0404 60.5675C44.3404 60.6659 43.5404 60.223 43.1104 61.345C41.3704 65.9314 39.5204 70.4784 37.7104 75.0352C37.1104 76.5509 37.1504 78.165 36.9604 79.7397C36.3004 85.0347 35.7304 90.3395 35.1004 95.6345C34.7704 98.3804 32.5004 100.241 29.8504 99.9748C27.2304 99.7189 25.3504 97.5438 25.6104 94.7979C26.0204 90.497 26.5804 86.2058 27.0804 81.9049C27.3704 79.4543 27.6804 76.9938 27.9504 74.5431C28.0304 73.8246 28.2104 73.1456 28.4704 72.4763C30.1804 68.1557 31.8904 63.835 33.6204 59.5144C33.8204 59.0223 33.9304 58.5401 33.9304 58.0086C33.9204 49.5445 33.9204 41.0902 33.9404 32.6261C33.9404 32.0652 33.7404 31.7601 33.3004 31.455C29.7304 28.9945 26.1804 26.4946 22.6104 24.0341C21.5904 23.3255 20.9404 22.4299 20.6004 21.2488C19.1304 16.131 17.6204 11.023 16.1204 5.90519C15.2204 2.81481 15.9104 1.29914 18.8404 0C19.4104 0.00984197 19.9404 0.0098422 20.4704 0.0098422Z" fill="#E2621B" fill-opacity="0.4"/>
<path d="M52.6605 16.4655C52.6605 20.9732 48.9705 24.6048 44.4305 24.595C39.8905 24.5852 36.1705 20.9043 36.1905 16.4459C36.2105 12.0071 39.8905 8.39512 44.4005 8.38527C49.0105 8.37543 52.6705 11.9579 52.6605 16.4655Z" fill="#E2621B" fill-opacity="0.4"/>
<path d="M73.9202 8.33631C73.9202 9.80277 73.8903 11.2594 73.9303 12.7258C73.9603 13.7789 73.4203 14.3596 72.4703 14.645C71.4903 14.9501 70.5202 14.9206 69.5702 14.4974C69.0002 14.2415 68.5102 13.8872 68.5202 13.2179C68.5302 12.5782 69.0302 12.2633 69.5602 12.0369C69.8602 11.9089 70.2002 11.7318 70.5002 11.7613C71.5702 11.8794 71.6003 11.2889 71.5803 10.4819C71.5303 8.88746 71.5502 7.29306 71.5702 5.70851C71.5802 5.11799 71.4502 4.97036 70.8402 5.19672C69.1802 5.81677 67.5002 6.39744 65.8102 6.92891C65.2402 7.10607 65.1403 7.39148 65.1503 7.91311C65.1703 10.3834 65.1303 12.8538 65.1803 15.3241C65.2003 16.1804 64.8402 16.6823 64.0902 16.9677C62.8902 17.4205 61.6902 17.4401 60.5602 16.7807C59.5402 16.1804 59.5603 15.2257 60.5803 14.645C60.8603 14.4875 61.1902 14.2809 61.4902 14.3005C62.7502 14.3793 62.8602 13.71 62.8202 12.6963C62.7402 10.8165 62.8203 8.92683 62.7903 7.03717C62.7703 5.98408 63.1502 5.35419 64.2102 5.01957C66.7402 4.20268 69.2402 3.28738 71.7602 2.43113C73.1802 1.94887 73.9102 2.46065 73.9202 3.94679C73.9302 5.4034 73.9202 6.86986 73.9202 8.33631Z" fill="#E2621B" fill-opacity="0.4"/>
<path d="M5.04052 24.7821C5.04052 23.6109 5.06052 22.4397 5.03052 21.2685C5.02052 20.7863 5.13052 20.5009 5.64052 20.3434C7.14052 19.8611 8.64052 19.3494 10.1205 18.7982C10.7405 18.562 10.8505 18.8376 10.8705 19.3297C10.9105 20.3532 10.2505 21.2095 9.09052 21.6524C7.42052 22.2823 7.42052 22.2823 7.42052 24.0637C7.42052 26.1797 7.42052 28.2957 7.42052 30.4117C7.42052 30.8054 7.44052 31.1794 7.14052 31.514C6.19052 32.5868 3.36052 32.6163 2.41052 31.5337C1.95052 31.0121 1.94052 30.4708 2.46052 29.9787C2.88052 29.585 3.41052 29.3094 3.97052 29.3291C4.99052 29.3587 5.12052 28.8567 5.06052 28.0103C4.98052 26.9277 5.04052 25.8549 5.04052 24.7821Z" fill="#E2621B" fill-opacity="0.4"/>
<path d="M88.6704 33.2363C89.0204 34.8012 88.5104 35.7165 87.0204 36.2775C85.3904 36.8975 85.3904 36.8975 85.3904 38.6002C85.3904 40.7458 85.3904 42.8913 85.3904 45.027C85.3904 45.1845 85.4104 45.3518 85.3904 45.5093C85.2704 46.336 84.1604 46.9265 82.7504 46.9265C81.3704 46.9364 80.2104 46.336 80.0704 45.529C80.0004 45.1451 80.1804 44.84 80.4404 44.5743C80.7504 44.2692 81.1504 44.1117 81.5604 43.9739C82.0204 43.8165 82.7304 44.0231 82.9304 43.6491C83.1604 43.2062 83.0304 42.5764 83.0304 42.0252C83.0404 39.9781 83.0504 37.931 83.0204 35.8838C83.0104 35.3425 83.1704 35.0866 83.7004 34.9193C85.3504 34.4174 86.9804 33.8268 88.6704 33.2363Z" fill="#E2621B" fill-opacity="0.4"/>
<path d="M85.7902 4.62598C85.9202 4.70471 86.0702 4.73424 86.1302 4.83266C86.5702 5.54128 87.1702 6.06291 87.8502 6.53532C88.1902 6.77153 88.0402 7.10615 87.6902 7.31284C87.0902 7.66715 86.6202 8.1494 86.2402 8.73008C85.9402 9.18281 85.6302 9.16313 85.3402 8.72024C84.9602 8.13956 84.4902 7.65731 83.8902 7.29315C83.5402 7.07663 83.3902 6.77153 83.7402 6.52548C84.4302 6.05306 85.0202 5.5216 85.4602 4.82282C85.5002 4.73424 85.6602 4.69487 85.7902 4.62598Z" fill="#E2621B" fill-opacity="0.4"/>
<path d="M4.53029 16.1212C4.48029 16.2393 4.46029 16.3574 4.39029 16.4066C3.67029 16.9184 3.03029 17.5089 2.53029 18.2471C2.36029 18.503 2.04029 18.3849 1.87029 18.129C1.46029 17.4893 0.950293 16.9578 0.290293 16.5543C-0.0497067 16.3476 -0.129707 16.0425 0.260293 15.7866C0.900293 15.3732 1.44029 14.8713 1.85029 14.2217C2.07029 13.8773 2.39029 13.8182 2.64029 14.1922C3.06029 14.8221 3.57029 15.3634 4.23029 15.7669C4.35029 15.8555 4.43029 16.0031 4.53029 16.1212Z" fill="#E2621B" fill-opacity="0.4"/>
<path d="M90.9405 14.271C91.3005 14.4186 91.3705 14.7828 91.6105 14.9895C91.8005 15.1666 91.9805 15.3733 92.2005 15.5012C92.7105 15.8162 92.9205 16.1311 92.2305 16.4461C91.6205 16.7315 91.4705 17.7649 90.8305 17.637C90.2905 17.5385 90.0405 16.6528 89.4305 16.3477C89.2305 16.2492 88.9805 16.0229 89.2505 15.8162C89.7905 15.3831 90.3105 14.9501 90.7005 14.3694C90.7505 14.3202 90.8705 14.3104 90.9405 14.271Z" fill="#E2621B" fill-opacity="0.4"/>
<path d="M11.6705 12.9321C11.3405 12.9419 11.2805 12.6466 11.1105 12.4596C10.7105 12.0364 9.98047 11.6329 9.98047 11.2294C9.98047 10.816 10.7705 10.4519 11.1005 9.98931C11.5105 9.3988 11.8105 9.37911 12.1505 10.009C12.4305 10.5405 13.3205 10.6783 13.3205 11.2392C13.3205 11.8002 12.4405 11.938 12.1505 12.4596C12.0305 12.6466 11.9405 12.873 11.6705 12.9321Z" fill="#E2621B" fill-opacity="0.4"/>
<path d="M3.64039 9.11344C3.30039 8.84771 2.85039 8.48356 2.40039 8.12925C2.83039 7.71588 3.25039 7.30252 3.68039 6.88916C4.07039 7.30252 4.45039 7.71588 4.84039 8.13909C4.40039 8.50324 3.96039 8.85755 3.64039 9.11344Z" fill="#E2621B" fill-opacity="0.4"/>
<path d="M95.3405 8.33644C94.8905 8.75964 94.4605 9.46827 94.0505 9.45842C93.6405 9.44858 92.9305 8.73996 92.9205 8.3266C92.9105 7.93292 93.6505 7.20461 94.0405 7.21445C94.4805 7.2243 94.8905 7.91323 95.3405 8.33644Z" fill="#E2621B" fill-opacity="0.4"/>
</svg>
