<?xml version="1.0" encoding="utf-8"?>
<!-- Generator: Adobe Illustrator 25.0.1, SVG Export Plug-In . SVG Version: 6.00 Build 0)  -->
<svg version="1.1" id="Layer_1" xmlns="http://www.w3.org/2000/svg" xmlns:xlink="http://www.w3.org/1999/xlink" x="0px" y="0px"
	 viewBox="0 0 300 300" style="enable-background:new 0 0 300 300;" xml:space="preserve">
<style type="text/css">
	.st0{fill:#7B859E;}
</style>
<g transform="translate(0.000000,300.000000) scale(0.100000,-0.100000)">
	<path class="st0" d="M823,2647l-663-332v-815V685l670-335l670-335l670,335l670,335v815v815l-665,333c-366,182-671,332-678,331
		C1491,2979,1187,2830,823,2647z M1550,2881l34-19l-83-42l-84-42l-38,18c-22,9-39,20-39,23c0,9,142,80,160,80
		C1508,2899,1531,2891,1550,2881z M1752,2779l82-41l-42-22l-43-22l43-20l43-21l-42-22l-42-21l-126,62l-125,63l82,42
		c46,23,84,42,86,42C1669,2820,1707,2801,1752,2779z M1129,2671l35-19l-42-21l-42-21l-42,21l-42,21l35,19c18,10,41,18,49,18
		S1111,2681,1129,2671z M1583,2609l82-42l-82-40l-83-41l-42,21l-43,20l-43-20l-43-21l-82,41l-82,40l42,22l42,21l44-21l43-21l80,40
		c43,23,80,41,82,42C1499,2650,1537,2631,1583,2609z M2085,2613c41-21,75-40,75-43s-36-24-80-45l-80-39l-83,41l-82,40l80,41
		c44,23,83,41,87,42C2006,2650,2043,2633,2085,2613z M955,2593c19-9,35-19,35-23c0-3-54-32-120-65l-120-59l-42,21l-43,20l120,61
		c66,34,123,61,127,61C916,2610,935,2602,955,2593z M1170,2405c-44-22-80-42-80-45c0-4,17-14,38-24l37-18l-41-20l-40-20l-124,62
		l-124,62l39,20l39,20l43-21l44-21l41,21l42,22l-42,21l-43,22l43,21l43,20l83-41l83-41L1170,2405z M1840,2481l74-39l-82-41l-82-41
		l-82,41l-82,41l74,39c41,21,82,38,90,38S1799,2502,1840,2481z M2499,2404c2-1-34-22-81-45l-84-41l-124,62l-125,63l42,20
		c41,20,43,20,83,2s42-18,83,2l42,20l80-39C2459,2426,2497,2406,2499,2404z M629,2421l35-19l-42-21l-42-21l-42,21l-42,21l35,19
		c18,10,41,18,49,18S611,2431,629,2421z M2082,2359l83-41l-83-42l-83-42l43-20l43-21l-42-22l-42-21l-86,42l-85,43l42,21l42,21
		l-39,21l-39,20l79,40c44,23,81,41,83,42C1999,2400,2037,2381,2082,2359z M452,2339l42-21l-38-20c-37-19-40-19-77-2
		c-22,9-39,20-39,24c0,5,54,36,68,39C409,2360,430,2350,452,2339z M875,2298l125-63l-42-21l-42-22l-43,21l-43,21l-42-21l-43-21
		l38-18c20-10,37-21,37-24s-16-14-35-23l-35-17l-125,62l-125,63l122,62c68,34,124,62,125,62C749,2360,806,2332,875,2298z M2625,2343
		c19-9,35-19,35-23c0-3-36-23-79-45l-80-39l-41,19l-42,19l84,42c45,24,84,43,85,43C2588,2360,2605,2352,2625,2343z M1165,2153
		c41-21,75-40,75-43s-54-32-120-65l-120-59l-83,40l-82,41l120,61c66,34,123,61,127,61C1086,2190,1123,2173,1165,2153z M1835,2153
		c41-21,75-40,75-44c0-3-17-14-39-23c-37-17-39-17-80,3l-41,21l-42-21l-42-21l43-22l43-22l-42-19l-41-19l-120,59
		c-65,33-119,62-119,65c0,4,16,14,35,23c34,16,37,16,75-3l40-20l77,39c43,22,84,40,90,41C1754,2190,1793,2173,1835,2153z M295,2153
		l35-17v-103v-103l-40,20l-40,20v100c0,55,2,100,5,100C257,2170,275,2162,295,2153z M2750,2070v-100l-40-20l-40-20v103v103l33,17
		c17,8,35,16,40,16C2747,2170,2750,2125,2750,2070z M2205,2133c19-9,35-20,35-23c0-4-17-15-39-24c-37-17-40-17-77,2l-38,19l40,21
		c21,12,40,21,41,22C2168,2150,2185,2142,2205,2133z M500,2050l80-40v-54c0-52,1-53,40-71c39-17,40-20,40-67c0-26-2-48-5-48
		s-59,27-125,60l-120,60v100c0,55,2,100,5,100S456,2072,500,2050z M2590,1990v-100l-120-60c-66-33-122-60-125-60s-5,22-5,48
		c0,47,1,50,40,67c39,18,40,19,40,71v54l78,39c42,22,80,40,85,41C2587,2090,2590,2045,2590,1990z M1579,1944c2-1-52-31-121-65
		l-124-61l-124,62l-124,62l39,20c38,20,39,20,80,0l41-20l43,22l43,22l-42,19l-42,19l44,22l43,22l120-60
		C1521,1975,1577,1946,1579,1944z M1960,1965l-125-63l-40,20l-39,21l124,62l125,63l40-20l39-21L1960,1965z M840,1880l80-40v-100
		c0-55-2-100-5-100s-41,18-85,40l-80,40v100c0,55,2,100,5,100S796,1902,840,1880z M2250,1820v-100l-80-40c-44-22-82-40-85-40
		s-5,45-5,100v100l78,39c42,22,80,40,85,41C2247,1920,2250,1875,2250,1820z M1705,1883c19-9,35-20,35-23c0-4-17-15-39-24
		c-37-17-40-17-77,2l-38,19l40,21c21,12,40,21,41,22C1668,1900,1685,1892,1705,1883z M1548,1791l33-17l-40-19c-40-17-42-17-82,0
		l-40,19l33,17c18,10,40,18,48,18S1530,1801,1548,1791z M1250,1573v-103l-125,62l-125,63v47c0,52,3,54,40,33s40-19,40,35v50l85-42
		l85-42V1573z M1928,1660c4,1,18,7,32,15c37,21,40,19,40-33v-47l-125-63l-125-62v103v103l83,41l82,40l3-48
		C1920,1682,1924,1660,1928,1660z M660,1560c0-55-3-100-7-100c-5,1-19,7-33,15c-37,21-40,19-40-30c0-25-2-45-5-45s-41,18-85,40
		l-80,40v50v50l40-20c21-11,42-20,45-20s5,45,5,100v100l80-40l80-40V1560z M2506,1540c3,0,23,9,44,20l40,20v-50v-50l-80-40
		c-44-22-82-40-85-40s-5,20-5,45c0,49-3,51-40,30c-14-8-28-14-32-15c-5,0-8,45-8,100v100l78,39l77,39l3-99
		C2499,1585,2503,1540,2506,1540z M330,1570v-50l-40,20c-39,20-40,22-40,70v50l40-20C329,1620,330,1618,330,1570z M2750,1610
		c0-48-1-50-40-70l-40-20v50c0,47,2,50,38,69c20,11,38,20,40,21C2749,1660,2750,1638,2750,1610z M1380,1610l40-20v-100
		c0-55-2-100-5-100s-24,9-45,20l-40,20v100c0,55,2,100,5,100S1359,1621,1380,1610z M1670,1530v-100l-40-20c-21-11-42-20-45-20
		s-5,45-5,100v100l38,19c20,11,40,20,45,21C1667,1630,1670,1585,1670,1530z M840,1570l80-40v-100c0-55-2-100-5-100s-41,18-85,40
		l-80,40v100c0,55,2,100,5,100S796,1592,840,1570z M2250,1510v-100l-80-40c-44-22-82-40-85-40s-5,45-5,100v100l78,39
		c42,22,80,40,85,41C2247,1610,2250,1565,2250,1510z M1170,1303v-103l40-20c39-20,40-22,40-70v-50l-85,42l-85,42v52c0,50-1,51-40,69
		l-40,18v103v104l85-42l85-42V1303z M2000,1387v-104l-40-18c-39-18-40-19-40-69v-52l-85-42l-85-42v50c0,48,1,50,40,70l40,20v103v103
		l83,41c45,23,83,42,85,42C1999,1490,2000,1443,2000,1387z M295,1433l35-17v-153v-153l-40,20l-40,20v150c0,83,2,150,5,150
		C257,1450,275,1442,295,1433z M2750,1300v-150l-40-20l-40-20v153v153l33,17c17,8,35,16,40,16C2747,1450,2750,1383,2750,1300z
		 M500,1330l80-40v-104v-103l40-18c39-17,40-20,40-67c0-26-2-48-5-48s-59,27-125,60l-120,60v50v50l40-20c21-11,42-20,45-20
		s5,23,5,50c0,50-1,51-45,72c-44,22-45,23-45,70c0,26,2,48,5,48S456,1352,500,1330z M2590,1322c0-47-1-48-45-70c-44-21-45-22-45-72
		c0-27,2-50,5-50s24,9,45,20l40,20v-50v-50l-120-60c-66-33-122-60-125-60s-5,22-5,48c0,47,1,50,40,67l40,18v103v104l78,39
		c42,22,80,40,85,41C2587,1370,2590,1348,2590,1322z M1420,1028c0-26-2-48-5-48s-24,9-45,20c-39,20-40,22-40,70v50l45-22
		C1419,1076,1420,1075,1420,1028z M1670,1070c0-48-1-50-40-70c-21-11-42-20-45-20s-5,22-5,48c0,47,1,49,43,69c23,12,43,22,45,22
		C1669,1120,1670,1098,1670,1070z M330,960c0-28-2-50-5-50c-2,0-20,8-40,17c-34,16-35,19-35,70v53l40-20C329,1010,330,1008,330,960z
		 M2750,997c0-51-1-54-35-70c-20-9-38-17-40-17c-3,0-5,22-5,50c0,47,2,50,38,69c20,11,38,20,40,21C2749,1050,2750,1026,2750,997z
		 M1250,908c0-52-3-54-40-33s-40,19-40-35c0-48,1-50,40-70s40-22,40-70v-50l-125,62l-125,63v47c0,52,3,54,40,33c14-8,28-14,33-15
		c4,0,7,45,7,100v100l85-42l85-42V908z M1928,840c4,1,18,7,32,15c37,21,40,19,40-33v-47l-125-63l-125-62v50c0,48,1,50,40,70
		s40,22,40,70c0,54-3,56-40,35s-40-19-40,33v48l83,40l82,41l3-98C1919,884,1924,840,1928,840z M660,792v-52l-40,20l-40,20v-50
		c0-48,1-50,40-70s40-22,40-70c0-28-2-50-5-50s-59,27-125,60l-120,60v155v155l125-62l125-63V792z M2590,815V660l-120-60
		c-66-33-122-60-125-60s-5,22-5,50c0,48,1,50,40,70s40,22,40,70v50l-40-20l-40-20v52v53l123,62c67,34,123,62,125,62
		C2589,970,2590,900,2590,815z M1380,890l40-20V720c0-83-2-150-5-150s-24,9-45,20l-40,20v150c0,83,2,150,5,150S1359,901,1380,890z
		 M1670,760V610l-40-20c-21-11-42-20-45-20s-5,67-5,150v150l38,19c20,11,40,20,45,21C1667,910,1670,843,1670,760z M295,823
		c34-16,35-19,35-70v-53l-40,20c-39,20-40,22-40,70c0,28,2,50,5,50C257,840,275,832,295,823z M2750,790c0-48-1-50-40-70l-40-20v53
		c0,50,2,54,33,70C2749,846,2750,845,2750,790z M920,563c0-84-2-153-5-153s-41,18-85,40l-80,40v155v155l85-42l85-42V563z M2250,645
		V490l-80-40c-44-22-82-40-85-40s-5,69-5,153v153l83,41c45,23,83,42,85,42C2249,800,2250,730,2250,645z M1130,610l120-60V395V240
		l-125,62l-125,63v53v52l40-20l40-20v50c0,48-1,50-40,70s-40,22-40,70c0,28,2,50,5,50S1064,643,1130,610z M2000,620c0-48-1-50-40-70
		s-40-22-40-70v-50l40,20l40,20v-52v-53l-125-63l-125-62v155v155l118,59c64,33,120,60,125,60C1997,670,2000,648,2000,620z M1420,413
		v-53l-45,22c-45,22-45,22-45,75v53l45-22C1420,466,1420,466,1420,413z M1670,457c0-53,0-53-45-75l-45-22v53c0,52,1,53,43,74
		c23,12,43,22,45,22C1669,510,1670,486,1670,457z M1380,280c39-20,40-22,40-70c0-28-2-50-5-50s-24,9-45,20c-39,20-40,22-40,70
		c0,28,2,50,5,50S1359,291,1380,280z M1670,250c0-48-1-50-40-70c-21-11-42-20-45-20s-5,22-5,50c0,47,2,50,38,69c20,11,40,20,45,21
		C1667,300,1670,278,1670,250z"/>
</g>
</svg>
