<svg width="100" height="100" viewBox="0 0 100 100" fill="none" xmlns="http://www.w3.org/2000/svg">
<path d="M50.0003 35.2593C48.7553 36.9114 47.7703 38.6905 47.1022 40.5572C37.9926 66.0166 39.4966 85.9526 39.327 88.1025C46.3249 86.6717 53.6757 86.6717 60.6736 88.1025C60.5092 86.0189 61.981 65.9404 52.8985 40.557C51.8964 37.7569 50.5674 36.1317 50.0003 35.2593V35.2593Z" fill="#C33B8D" fill-opacity="0.24"/>
<path d="M38.328 25.4963L31.6008 31.0641C27.4057 34.5362 25.0955 39.1521 25.0955 44.0621H17.98C17.98 37.5791 21.0304 31.484 26.5694 26.8999L34.3028 20.4992L27.8841 12.5308C15.6518 15.248 6.4628 24.1183 5.51051 34.9608L0 97.701C1.42856 97.9911 6.26096 100 16.2014 100C26.0936 100 30.9167 98.0151 32.2113 97.7538C32.7962 89.9717 29.1606 64.7268 43.1578 31.4925L38.328 25.4963Z" fill="#C33B8D" fill-opacity="0.24"/>
<path d="M94.4891 34.9608C93.5373 24.1238 84.3533 15.2492 72.1153 12.5308L65.6968 20.4992L73.4302 26.8999C78.9692 31.4842 82.0194 37.5791 82.0194 44.0621H74.9039C74.9039 39.1521 72.5937 34.5362 68.3988 31.0642L61.6716 25.4963L56.8418 31.4923C70.8376 64.7235 67.2022 89.9517 67.7883 97.7536C69.1308 98.0247 73.9233 99.9999 83.7983 99.9999C93.8575 99.9999 98.5243 98.0004 99.9994 97.7008L94.4891 34.9608Z" fill="#C33B8D" fill-opacity="0.24"/>
<path d="M71.348 2.86854C70.9419 2.81475 51.9522 -3.5587 28.6548 2.86854L50.0014 29.3698L71.348 2.86854Z" fill="#C33B8D" fill-opacity="0.24"/>
</svg>
