<svg width="101" height="101" viewBox="0 0 101 101" fill="none" xmlns="http://www.w3.org/2000/svg">
<path d="M100.401 38.4212C100.131 37.603 99.4444 37.0121 98.6269 36.8984L67.1387 32.5347L52.4599 1.77115C52.0947 1.00304 51.3382 0.516602 50.5164 0.516602C49.6946 0.516602 48.9423 1.00304 48.5728 1.77562L33.8896 32.5347L2.40584 36.8984C1.58835 37.0119 0.897016 37.603 0.631856 38.4212C0.366696 39.2393 0.566636 40.1438 1.15362 40.7575L24.2458 64.8983L17.9543 97.7938C17.7935 98.6484 18.1065 99.5165 18.7673 100.048C19.4283 100.58 20.3238 100.662 21.0588 100.276L50.5209 84.8757L79.983 100.276C80.2918 100.435 80.6221 100.517 80.957 100.517C81.4223 100.517 81.8919 100.357 82.2787 100.048C82.9352 99.5212 83.2528 98.6484 83.0917 97.794L76.8003 64.8987L99.8924 40.7579C100.466 40.1483 100.666 39.2393 100.401 38.4212V38.4212ZM46.0032 49.0712L39.4812 67.2529C39.1638 68.1392 38.3506 68.7256 37.4463 68.7256C36.542 68.7256 35.7288 68.1392 35.4114 67.2529L28.8894 49.0712C28.4633 47.894 29.0329 46.5849 30.159 46.1438C31.2765 45.7119 32.5373 46.2983 32.9592 47.471L37.4463 59.98L41.9334 47.471C42.3551 46.2938 43.6118 45.7074 44.7336 46.1438C45.8597 46.5846 46.4249 47.8893 46.0032 49.0712ZM52.6644 66.4483C52.6644 67.7029 51.6904 68.7211 50.4903 68.7211C49.2903 68.7211 48.3162 67.7029 48.3162 66.4483V48.2666C48.3162 47.0121 49.2903 45.9938 50.4903 45.9938C51.6904 45.9938 52.6644 47.0121 52.6644 48.2666V66.4483ZM63.5343 59.6302H61.3602V66.4483C61.3602 67.7029 60.3862 68.7211 59.1862 68.7211C57.9861 68.7211 57.0121 67.7029 57.0121 66.4483V48.2666C57.0121 47.0121 57.9861 45.9938 59.1862 45.9938H63.5341C67.13 45.9938 70.0561 49.0528 70.0561 52.812C70.0563 56.5756 67.1302 59.6302 63.5343 59.6302Z" fill="#C42414" fill-opacity="0.2"/>
<path d="M63.4157 50H61V55.495H63.4157C64.7444 55.495 65.8314 54.264 65.8314 52.7474C65.8314 51.2307 64.7444 50 63.4157 50V50Z" fill="#C42414" fill-opacity="0.2"/>
</svg>
